<svg xmlns="http://www.w3.org/2000/svg" xmlns:xlink="http://www.w3.org/1999/xlink" version="1.1" width="256" height="256" viewBox="0 0 256 256" xml:space="preserve">

<defs>
</defs>
<g style="stroke: none; stroke-width: 0; stroke-dasharray: none; stroke-linecap: butt; stroke-linejoin: miter; stroke-miterlimit: 10; fill: none; fill-rule: nonzero; opacity: 1;" transform="translate(254.59340659340654 254.59340659340654) rotate(180) scale(2.81 2.81) matrix(1 0 0 -1 0 90)" >
	<linearGradient id="SVGID_1027" gradientUnits="userSpaceOnUse" x1="26.0411" y1="10.1114" x2="61.8474" y2="43.294">
<stop offset="0%" style="stop-color:#1d2432;stop-opacity: 1"/>
<stop offset="100%" style="stop-color:#1d2432;stop-opacity: 1"/>
</linearGradient>
<path d="M 69.185 38.289 L 32.872 1.976 c -2.635 -2.635 -6.908 -2.635 -9.543 0 L 18.96 6.345 c -2.635 2.635 -2.635 6.908 0 9.543 L 48.072 45 h 18.334 C 69.908 45 71.662 40.766 69.185 38.289 z" style="stroke: none; stroke-width: 1; stroke-dasharray: none; stroke-linecap: butt; stroke-linejoin: miter; stroke-miterlimit: 10; fill: url(#SVGID_1027); fill-rule: nonzero; opacity: 1;" transform=" matrix(1 0 0 1 0 0) " stroke-linecap="round" />
	<linearGradient id="SVGID_1028" gradientUnits="userSpaceOnUse" x1="55.7324" y1="38.9943" x2="19.0895" y2="74.3981">
<stop offset="0%" style="stop-color:#1d2432;stop-opacity: 1"/>
<stop offset="100%" style="stop-color:#1d2432;stop-opacity: 1"/>
</linearGradient>
<path d="M 70.98 49.916 L 32.872 88.024 c -2.635 2.635 -6.908 2.635 -9.543 0 l -4.369 -4.369 c -2.635 -2.635 -2.635 -6.908 0 -9.543 L 48.072 45 c 5.836 -5.836 10.04 -17.784 1.158 -26.666 l 21.75 21.75 C 73.695 42.799 73.695 47.201 70.98 49.916 z" style="stroke: none; stroke-width: 1; stroke-dasharray: none; stroke-linecap: butt; stroke-linejoin: miter; stroke-miterlimit: 10; fill: url(#SVGID_1028); fill-rule: nonzero; opacity: 1;" transform=" matrix(1 0 0 1 0 0) " stroke-linecap="round" />
</g>
</svg>