<svg width="100%" height="100%" viewBox="0 0 79 68" version="1.1" xmlns="http://www.w3.org/2000/svg" xmlns:xlink="http://www.w3.org/1999/xlink" xml:space="preserve" style="fill-rule: evenodd; clip-rule: evenodd; stroke-linejoin: round; stroke-miterlimit: 1.41421;" preserveAspectRatio="xMinYMin meet"><path d="M73.196,20.581c0,8.05 -8.138,15.528 -8.27,15.66l-25.515,24.589l-25.56,-24.633c-0.088,-0.088 -8.226,-7.566 -8.226,-15.616c0,-12.361 8.358,-14.956 15.397,-14.956c6.555,0 13.945,7.082 16.233,9.809c1.056,1.276 3.255,1.276 4.311,0c2.288,-2.727 9.678,-9.809 16.233,-9.809c7.039,0 15.397,2.595 15.397,14.956Zm5.625,0c0,-12.889 -7.869,-20.581 -21.022,-20.581c-7.699,0 -14.913,6.065 -18.388,9.496c-3.476,-3.431 -10.69,-9.496 -18.389,-9.496c-13.153,0 -21.022,7.692 -21.022,20.581c0,10.557 9.672,19.399 10.024,19.707l27.451,26.481c0.528,0.527 1.232,0.791 1.936,0.791c0.703,0 1.407,-0.264 1.935,-0.791l27.407,-26.393c0.396,-0.396 10.068,-9.238 10.068,-19.795Z" style="fill-rule:nonzero;"></path></svg>
