<svg width="100%" height="100%" viewBox="0 0 67 67" version="1.1" xmlns="http://www.w3.org/2000/svg" xmlns:xlink="http://www.w3.org/1999/xlink" xml:space="preserve" style="fill-rule: evenodd; clip-rule: evenodd; stroke-linejoin: round; stroke-miterlimit: 1.41421;" preserveAspectRatio="xMinYMin meet"><path d="M15.962,61.012l-4.707,0l0,-5.631l-5.63,0l0,-4.707l4.003,-4.002l10.337,10.337l-4.003,4.003Zm23.006,-40.821c0,0.264 -0.088,0.527 -0.308,0.747l-23.841,23.842c-0.22,0.22 -0.484,0.308 -0.748,0.308c-0.572,0 -0.968,-0.396 -0.968,-0.968c0,-0.264 0.088,-0.528 0.308,-0.748l23.842,-23.841c0.219,-0.22 0.483,-0.308 0.747,-0.308c0.572,0 0.968,0.396 0.968,0.968Zm-2.375,-8.446l-36.593,36.598l0,18.294l18.294,0l36.598,-36.593l-18.299,-18.299Zm30.044,4.223c0,-1.496 -0.616,-2.947 -1.628,-4.003l-10.337,-10.293c-1.056,-1.056 -2.507,-1.672 -4.003,-1.672c-1.496,0 -2.947,0.616 -3.959,1.672l-7.302,7.258l18.299,18.299l7.302,-7.302c1.012,-1.012 1.628,-2.464 1.628,-3.959Z" style="fill-rule:nonzero;"></path></svg>
