<svg width="100%" height="100%" viewBox="0 0 72 72" version="1.1" xmlns="http://www.w3.org/2000/svg" xmlns:xlink="http://www.w3.org/1999/xlink" xml:space="preserve" style="fill-rule: evenodd; clip-rule: evenodd; stroke-linejoin: round; stroke-miterlimit: 1.41421;" preserveAspectRatio="xMinYMin meet"><path d="M61.937,14.075c0,2.331 -1.891,4.223 -4.223,4.223c-2.331,0 -4.222,-1.892 -4.222,-4.223c0,-2.331 1.891,-4.222 4.222,-4.222c2.332,0 4.223,1.891 4.223,4.222Zm9.853,-12.668c0,-0.791 -0.704,-1.407 -1.496,-1.407c-15.307,0 -23.708,3.519 -34.704,14.471c-2.507,2.551 -5.102,5.454 -7.741,8.577l-16.67,0.88c-0.44,0.044 -0.88,0.308 -1.144,0.704l-9.853,16.89c-0.308,0.528 -0.22,1.231 0.22,1.715l2.815,2.815c0.264,0.264 0.66,0.396 1.012,0.396c0.132,0 0.264,0 0.396,-0.044l12.14,-3.739l12.359,12.36l-3.738,12.14c-0.132,0.484 0,1.012 0.351,1.407l2.816,2.815c0.307,0.264 0.659,0.396 1.011,0.396c0.264,0 0.484,-0.044 0.704,-0.176l16.89,-9.852c0.396,-0.264 0.66,-0.704 0.704,-1.144l0.88,-16.67c3.123,-2.639 6.026,-5.234 8.577,-7.741c10.424,-10.469 14.471,-20.19 14.471,-34.793Z" style="fill-rule:nonzero;"></path></svg>
